<?xml version="1.0" standalone="no"?>
<!DOCTYPE svg PUBLIC "-//W3C//DTD SVG 20010904//EN"
 "http://www.w3.org/TR/2001/REC-SVG-20010904/DTD/svg10.dtd">
<svg version="1.0" xmlns="http://www.w3.org/2000/svg"
 width="2014.000000pt" height="1656.000000pt" viewBox="0 0 2014.000000 1656.000000"
 preserveAspectRatio="xMidYMid meet">

<g transform="translate(0.000000,1656.000000) scale(0.100000,-0.100000)"
fill="#000000" stroke="none">
<path d="M8865 13990 c-8 -16 -15 -43 -15 -60 0 -16 -4 -30 -10 -30 -5 0 -10
-20 -10 -45 0 -25 -4 -45 -10 -45 -5 0 -10 -20 -10 -45 0 -25 -4 -45 -9 -45
-4 0 -11 -24 -14 -52 -4 -29 -11 -54 -17 -56 -5 -2 -10 -24 -10 -48 0 -24 -4
-44 -10 -44 -5 0 -10 -20 -10 -45 0 -25 -4 -45 -10 -45 -5 0 -10 -13 -10 -29
0 -16 -7 -45 -15 -64 -8 -20 -15 -50 -15 -67 0 -16 -4 -30 -10 -30 -5 0 -10
-20 -10 -45 0 -25 -4 -45 -10 -45 -5 0 -10 -20 -10 -45 0 -25 -4 -45 -10 -45
-5 0 -10 -18 -10 -39 0 -22 -4 -43 -10 -46 -5 -3 -12 -28 -16 -56 -4 -27 -11
-52 -15 -55 -5 -3 -9 -25 -9 -50 0 -24 -4 -44 -10 -44 -5 0 -10 -18 -10 -39 0
-22 -4 -43 -10 -46 -5 -3 -10 -19 -10 -34 0 -16 -7 -45 -15 -64 -8 -20 -15
-48 -15 -62 0 -14 -4 -25 -10 -25 -5 0 -10 -20 -10 -45 0 -25 -4 -45 -10 -45
-5 0 -10 -20 -10 -45 0 -25 -4 -45 -10 -45 -5 0 -10 -20 -10 -44 0 -24 -5 -46
-10 -48 -6 -2 -13 -27 -17 -56 -3 -28 -10 -52 -14 -52 -5 0 -9 -20 -9 -45 0
-25 -4 -45 -10 -45 -5 0 -10 -20 -10 -45 0 -25 -4 -45 -8 -45 -9 0 -31 -83
-39 -147 -3 -24 -9 -43 -14 -43 -5 0 -9 -20 -9 -45 0 -25 -4 -45 -10 -45 -5 0
-10 -16 -10 -35 0 -19 -4 -43 -9 -53 -13 -26 -32 -101 -38 -149 -3 -24 -9 -43
-14 -43 -5 0 -9 -22 -9 -50 0 -27 -4 -50 -9 -50 -5 0 -11 -17 -14 -37 -3 -21
-13 -65 -22 -98 -10 -33 -19 -77 -22 -97 -3 -21 -9 -38 -14 -38 -5 0 -9 -20
-9 -45 0 -25 -4 -45 -10 -45 -5 0 -10 -20 -10 -45 0 -25 -4 -45 -10 -45 -5 0
-10 -11 -10 -24 0 -13 -7 -43 -15 -66 -8 -23 -15 -58 -15 -76 0 -19 -4 -34
-10 -34 -5 0 -10 -20 -10 -45 0 -25 -4 -45 -9 -45 -5 0 -11 -17 -14 -37 -3
-21 -12 -65 -22 -98 -9 -33 -19 -79 -22 -102 -3 -24 -9 -43 -14 -43 -5 0 -9
-16 -9 -35 0 -19 -4 -43 -9 -53 -13 -24 -53 -188 -58 -239 -3 -24 -9 -43 -14
-43 -5 0 -9 -18 -9 -40 0 -22 -4 -48 -9 -58 -12 -23 -32 -99 -38 -144 -3 -21
-9 -38 -14 -38 -5 0 -9 -20 -9 -45 0 -25 -4 -45 -10 -45 -5 0 -10 -20 -10 -45
0 -25 -4 -45 -9 -45 -5 0 -11 -17 -14 -37 -3 -21 -13 -65 -22 -98 -10 -33 -20
-81 -22 -107 -3 -27 -9 -48 -14 -48 -5 0 -9 -20 -9 -45 0 -25 -4 -45 -9 -45
-5 0 -11 -17 -14 -37 -6 -46 -26 -122 -38 -145 -5 -10 -9 -36 -9 -58 0 -22 -4
-40 -10 -40 -5 0 -10 -16 -10 -35 0 -19 -4 -43 -9 -53 -12 -23 -32 -99 -38
-144 -3 -21 -9 -38 -14 -38 -5 0 -9 -22 -9 -50 0 -27 -4 -50 -9 -50 -5 0 -11
-19 -14 -42 -3 -24 -13 -70 -22 -103 -10 -33 -19 -77 -22 -97 -3 -21 -9 -38
-14 -38 -5 0 -9 -20 -9 -45 0 -25 -4 -45 -10 -45 -5 0 -10 -20 -10 -45 0 -25
-4 -45 -10 -45 -5 0 -10 -11 -10 -25 0 -14 -7 -42 -15 -62 -8 -19 -15 -48 -15
-64 0 -16 -4 -29 -10 -29 -5 0 -10 -25 -10 -55 0 -30 -4 -55 -9 -55 -5 0 -11
-17 -14 -37 -3 -21 -12 -65 -22 -98 -9 -33 -19 -77 -22 -97 -3 -21 -9 -38 -14
-38 -5 0 -9 -20 -9 -45 0 -25 -4 -45 -10 -45 -5 0 -10 -18 -10 -40 0 -22 -4
-48 -9 -58 -12 -23 -32 -99 -38 -144 -3 -21 -9 -38 -14 -38 -5 0 -9 -20 -9
-44 0 -25 -4 -48 -10 -51 -5 -3 -10 -20 -10 -36 0 -16 -7 -46 -15 -66 -8 -19
-15 -48 -15 -64 0 -16 -4 -29 -10 -29 -5 0 -10 -20 -10 -45 0 -25 -4 -45 -10
-45 -5 0 -10 -20 -10 -45 0 -25 -4 -45 -9 -45 -5 0 -11 -17 -14 -37 -3 -21
-13 -65 -22 -98 -10 -33 -19 -77 -22 -97 -3 -21 -9 -38 -13 -38 -4 0 -10 -21
-13 -47 -8 -72 -41 -212 -58 -245 -5 -10 -9 -34 -9 -53 0 -19 -4 -35 -10 -35
-5 0 -10 -20 -10 -45 0 -25 -4 -45 -9 -45 -5 0 -11 -17 -14 -37 -8 -58 -27
-136 -37 -155 -6 -10 -10 -34 -10 -53 0 -19 -4 -35 -10 -35 -5 0 -10 -20 -10
-44 0 -25 -4 -48 -10 -51 -5 -3 -10 -21 -10 -39 0 -18 -7 -41 -15 -52 -8 -10
-15 -38 -15 -61 0 -24 -4 -43 -10 -43 -5 0 -10 -20 -10 -45 0 -25 -4 -45 -10
-45 -5 0 -10 -17 -10 -38 0 -21 -3 -42 -7 -46 -9 -9 -33 -96 -40 -149 -3 -20
-9 -37 -14 -37 -5 0 -9 -20 -9 -45 0 -25 -4 -45 -9 -45 -5 0 -11 -21 -14 -47
-6 -62 -27 -145 -38 -157 -5 -6 -9 -27 -9 -48 0 -21 -4 -38 -10 -38 -5 0 -10
-20 -10 -45 0 -25 -4 -45 -10 -45 -5 0 -10 -20 -10 -44 0 -24 -3 -46 -7 -48
-10 -4 -43 -134 -43 -165 0 -13 -4 -23 -10 -23 -5 0 -10 -20 -10 -45 0 -25 -4
-45 -9 -45 -5 0 -11 -19 -14 -42 -7 -60 -27 -141 -38 -152 -5 -6 -9 -29 -9
-53 0 -24 -4 -43 -10 -43 -5 0 -10 -20 -10 -45 0 -25 -4 -45 -9 -45 -5 0 -11
-17 -14 -38 -10 -65 -31 -142 -39 -142 -4 0 -8 -20 -8 -45 0 -25 -4 -45 -10
-45 -5 0 -10 -20 -10 -45 0 -25 -4 -45 -10 -45 -5 0 -10 -15 -10 -34 0 -18 -7
-53 -15 -76 -8 -23 -15 -53 -15 -66 0 -13 -4 -24 -10 -24 -5 0 -10 -20 -10
-45 0 -25 -4 -45 -10 -45 -5 0 -10 -20 -10 -45 0 -25 -4 -45 -9 -45 -5 0 -11
-17 -14 -38 -7 -52 -31 -139 -40 -148 -4 -4 -7 -27 -7 -51 0 -23 -4 -43 -10
-43 -5 0 -10 -18 -10 -39 0 -22 -4 -43 -10 -46 -5 -3 -10 -15 -10 -26 0 -18 8
-19 104 -19 57 0 111 3 120 6 11 4 16 19 16 44 0 22 4 42 10 45 5 3 12 28 16
55 4 28 10 50 15 50 5 0 9 20 9 45 0 25 5 45 10 45 6 0 10 19 10 43 0 24 4 47
9 53 10 10 30 88 38 147 3 20 9 37 14 37 5 0 9 20 9 45 0 25 5 45 10 45 6 0
10 20 10 45 0 25 4 45 9 45 5 0 12 25 16 55 3 30 11 55 16 55 5 0 9 20 9 45 0
25 5 45 10 45 6 0 10 20 10 45 0 25 5 45 10 45 6 0 10 20 10 45 0 25 4 45 8
45 9 0 31 83 39 148 3 23 9 42 14 42 5 0 9 20 9 45 0 25 4 45 9 45 5 0 11 19
14 43 7 59 27 140 38 151 5 6 9 27 9 48 0 21 5 38 10 38 6 0 10 23 10 50 0 28
5 50 10 50 6 0 10 17 10 38 0 21 4 42 9 48 10 10 30 88 38 146 3 21 9 38 14
38 5 0 9 17 9 37 0 37 4 53 34 149 9 29 16 63 16 78 0 14 5 26 10 26 6 0 10
20 10 45 0 25 5 45 10 45 6 0 10 20 10 45 0 25 4 45 9 45 5 0 11 17 14 37 3
21 13 65 22 98 10 33 20 79 22 103 3 23 9 42 14 42 5 0 9 20 9 44 0 25 4 47 9
50 5 3 11 23 14 43 6 46 26 122 38 145 5 10 9 36 9 58 0 22 5 40 10 40 6 0 10
20 10 45 0 25 4 45 9 45 5 0 11 17 14 38 3 20 13 64 22 97 10 33 20 79 22 103
3 23 9 42 13 42 4 0 10 19 13 43 3 23 13 69 22 102 10 33 19 77 22 98 3 20 9
37 14 37 5 0 9 20 9 45 0 25 4 45 9 45 5 0 11 12 13 28 l3 27 378 3 c343 2
380 1 395 -15 12 -12 13 -18 4 -21 -7 -2 -12 -22 -12 -48 0 -24 -4 -44 -9 -44
-5 0 -11 -17 -14 -37 -3 -21 -13 -65 -22 -98 -10 -33 -19 -77 -22 -97 -3 -21
-9 -38 -14 -38 -5 0 -9 -20 -9 -45 0 -25 -4 -45 -9 -45 -5 0 -11 -17 -14 -37
-3 -21 -13 -65 -22 -98 -10 -33 -20 -81 -22 -107 -3 -27 -9 -48 -14 -48 -5 0
-9 -20 -9 -45 0 -25 -4 -45 -9 -45 -5 0 -11 -17 -14 -37 -6 -46 -26 -122 -38
-145 -5 -10 -9 -36 -9 -58 0 -22 -4 -40 -10 -40 -5 0 -10 -20 -10 -45 0 -25
-4 -45 -10 -45 -5 0 -10 -8 -10 -18 0 -11 -10 -54 -21 -98 -12 -43 -24 -98
-26 -122 -3 -23 -9 -42 -14 -42 -5 0 -9 -18 -9 -40 0 -22 -4 -48 -9 -58 -12
-23 -32 -99 -38 -144 -3 -21 -9 -38 -14 -38 -5 0 -9 -20 -9 -45 0 -25 -4 -45
-10 -45 -5 0 -10 -20 -10 -45 0 -25 -4 -45 -8 -45 -8 0 -29 -77 -39 -142 -3
-21 -9 -38 -14 -38 -5 0 -9 -25 -9 -55 0 -30 -4 -55 -9 -55 -5 0 -11 -17 -14
-37 -3 -21 -12 -65 -22 -98 -9 -33 -19 -77 -22 -97 -3 -21 -9 -38 -14 -38 -5
0 -9 -22 -9 -50 0 -27 -4 -50 -10 -50 -5 0 -10 -17 -10 -38 0 -21 -4 -42 -9
-48 -10 -10 -30 -88 -38 -146 -3 -21 -9 -38 -14 -38 -5 0 -9 -22 -9 -50 0 -27
-4 -50 -9 -50 -5 0 -11 -19 -14 -42 -3 -24 -13 -70 -22 -103 -10 -33 -19 -77
-22 -98 -3 -20 -9 -37 -14 -37 -5 0 -9 -20 -9 -45 0 -25 -4 -45 -10 -45 -5 0
-10 -20 -10 -45 0 -25 -4 -45 -8 -45 -8 0 -29 -77 -39 -142 -3 -21 -9 -38 -13
-38 -4 0 -10 -21 -13 -47 -8 -72 -41 -212 -58 -245 -23 -45 -15 -48 106 -48
96 0 115 3 115 15 0 8 5 15 10 15 6 0 10 20 10 45 0 25 5 45 10 45 6 0 10 16
10 35 0 19 4 43 9 53 14 28 33 103 38 155 3 26 9 47 14 47 5 0 9 20 9 45 0 25
4 45 9 45 5 0 11 17 14 38 3 20 12 64 22 97 9 33 19 77 22 97 3 21 9 38 14 38
5 0 9 20 9 45 0 25 5 45 10 45 6 0 10 20 10 45 0 25 4 45 9 45 5 0 12 25 16
55 3 30 11 55 16 55 5 0 9 20 9 45 0 25 5 45 10 45 6 0 10 20 10 45 0 25 5 45
10 45 6 0 10 13 10 29 0 16 7 45 15 64 8 20 15 50 15 67 0 16 5 30 10 30 6 0
10 20 10 45 0 25 5 45 10 45 6 0 10 20 10 45 0 25 5 45 10 45 6 0 10 15 10 34
0 18 7 50 15 69 8 20 15 50 15 67 0 16 5 30 10 30 6 0 10 20 10 45 0 25 5 45
10 45 6 0 10 20 10 45 0 25 5 45 10 45 6 0 10 13 10 29 0 16 7 45 15 64 8 20
15 48 15 62 0 14 5 25 10 25 6 0 10 20 10 45 0 25 5 45 10 45 6 0 10 20 10 45
0 25 4 45 9 45 5 0 11 21 14 47 5 52 24 127 38 155 5 10 9 34 9 53 0 19 5 35
10 35 6 0 10 20 10 45 0 25 4 45 8 45 8 0 28 77 39 153 3 20 9 37 14 37 5 0 9
20 9 45 0 25 4 45 9 45 5 0 11 19 14 43 9 72 30 157 39 157 4 0 8 20 8 45 0
25 5 45 10 45 6 0 10 20 10 45 0 25 5 45 10 45 6 0 10 17 10 38 0 21 3 42 7
46 9 9 33 96 40 149 3 20 9 37 14 37 5 0 9 25 9 55 0 30 4 55 9 55 5 0 11 17
14 38 6 47 24 119 38 155 l11 27 385 0 385 0 54 57 c30 31 54 60 54 65 0 6 16
25 35 44 19 18 35 36 35 39 0 3 -205 5 -456 5 -431 0 -456 1 -449 18 4 9 12
37 17 62 6 25 14 49 19 54 5 6 9 29 9 53 0 24 5 43 10 43 6 0 10 16 10 35 0
19 4 43 9 53 12 23 32 99 38 145 3 20 9 37 14 37 5 0 9 20 9 45 0 25 5 45 10
45 6 0 10 20 10 45 0 25 5 45 10 45 6 0 10 16 10 35 0 20 7 52 15 72 8 19 15
48 15 64 0 16 5 29 10 29 6 0 10 20 10 45 0 25 5 45 10 45 6 0 10 20 10 45 0
25 4 45 9 45 5 0 11 17 14 38 6 45 26 121 38 144 5 10 9 34 9 53 0 19 5 35 10
35 6 0 10 18 10 40 0 22 4 48 9 58 5 9 17 53 27 97 10 44 21 84 26 90 4 5 8
28 8 52 0 24 5 43 10 43 6 0 10 20 10 45 0 25 4 45 9 45 5 0 12 22 16 50 4 27
11 52 16 56 5 3 9 23 9 45 0 21 5 39 10 39 6 0 10 20 10 45 0 25 5 45 10 45 6
0 10 17 10 38 0 21 3 42 7 46 9 9 33 96 40 149 3 20 9 37 14 37 5 0 9 20 9 45
0 25 4 45 9 45 5 0 11 21 14 48 7 66 29 152 39 152 4 0 8 20 8 45 0 25 5 45
10 45 6 0 10 20 10 45 0 25 5 45 10 45 6 0 10 20 10 44 0 24 3 46 8 48 8 3 42
133 42 161 0 9 5 17 10 17 6 0 10 23 10 50 0 28 5 50 10 50 6 0 10 18 10 39 0
22 4 42 9 45 4 3 11 28 15 55 4 28 11 53 16 56 6 3 10 24 10 46 0 21 5 39 10
39 6 0 10 18 10 40 0 22 4 48 9 58 12 23 32 99 38 145 3 20 9 37 14 37 5 0 9
20 9 45 0 25 5 45 10 45 6 0 10 20 10 45 0 25 4 45 9 45 5 0 11 17 14 38 3 20
13 64 22 97 10 33 20 81 22 108 3 26 9 47 13 47 4 0 10 17 13 38 9 63 24 126
36 155 6 16 11 39 11 53 0 13 5 24 10 24 6 0 10 20 10 45 0 25 5 45 10 45 6 0
10 20 10 45 0 25 5 45 10 45 6 0 10 12 10 27 0 33 29 113 41 113 5 0 9 -16 9
-35 0 -19 5 -35 10 -35 6 0 10 -16 10 -36 0 -20 7 -59 16 -88 29 -94 34 -112
34 -139 0 -15 5 -27 10 -27 6 0 10 -25 10 -55 0 -30 4 -55 9 -55 5 0 11 -17
14 -37 3 -21 13 -67 22 -103 9 -36 19 -86 22 -112 3 -27 9 -48 14 -48 5 0 9
-20 9 -45 0 -25 4 -45 9 -45 5 0 11 -17 14 -37 10 -67 32 -161 40 -169 4 -4 7
-25 7 -46 0 -21 5 -38 10 -38 6 0 10 -20 10 -45 0 -25 4 -45 9 -45 5 0 11 -21
14 -47 5 -52 24 -127 38 -155 5 -10 9 -36 9 -58 0 -22 5 -40 10 -40 6 0 10
-20 10 -45 0 -25 4 -45 9 -45 5 0 11 -21 14 -47 3 -27 13 -75 22 -108 9 -33
19 -77 22 -97 3 -21 9 -38 13 -38 4 0 10 -21 13 -47 7 -63 22 -131 36 -166 6
-16 11 -42 11 -58 0 -16 5 -29 10 -29 6 0 10 -22 10 -50 0 -27 5 -50 10 -50 6
0 10 -18 10 -40 0 -22 4 -48 9 -58 14 -28 33 -103 38 -154 3 -27 9 -48 14 -48
5 0 9 -20 9 -45 0 -25 5 -45 10 -45 6 0 10 -20 10 -45 0 -25 5 -45 10 -45 6 0
10 -15 10 -32 1 -18 7 -51 15 -73 8 -22 15 -52 15 -67 0 -16 5 -28 10 -28 6 0
10 -22 10 -50 0 -27 5 -50 10 -50 6 0 10 -20 10 -44 0 -25 5 -48 10 -51 6 -3
10 -20 10 -36 0 -16 7 -46 15 -66 8 -19 15 -48 15 -64 0 -16 5 -29 10 -29 6 0
10 -25 10 -55 0 -30 4 -55 9 -55 5 0 11 -17 14 -37 3 -21 13 -65 22 -98 10
-33 20 -80 22 -104 5 -46 29 -83 41 -64 4 5 22 16 40 24 17 8 32 17 32 21 0 5
9 8 20 8 11 0 20 4 20 9 0 5 11 12 25 15 14 4 25 11 25 16 0 6 9 10 20 10 11
0 20 5 20 10 0 6 11 10 25 10 14 0 25 5 25 10 0 6 7 10 15 10 8 0 15 5 15 10
0 6 7 10 16 10 8 0 22 7 30 15 9 8 24 15 35 15 10 0 19 5 19 10 0 6 11 10 25
10 14 0 25 5 25 10 0 6 7 10 15 10 14 0 35 9 75 32 8 4 22 11 30 14 8 3 23 10
32 15 10 5 27 9 38 9 11 0 20 4 20 8 0 4 21 14 48 21 26 8 56 20 67 28 11 7
30 13 42 13 13 0 23 5 23 10 0 6 14 10 30 10 17 0 30 5 30 10 0 6 15 10 34 10
19 0 36 3 38 8 5 11 102 42 132 42 14 0 26 5 26 10 0 6 18 10 40 10 22 0 40 5
40 10 0 6 16 10 35 10 19 0 43 4 53 10 22 12 105 31 165 37 26 3 47 9 47 14 0
5 32 9 70 9 39 0 70 4 70 9 0 5 30 11 68 14 37 3 109 10 160 17 l92 13 -6 51
c-4 28 -11 53 -15 54 -5 2 -9 24 -9 48 0 24 -4 44 -9 44 -5 0 -11 19 -13 43
-5 48 -26 134 -39 159 -5 10 -9 34 -9 53 0 19 -4 35 -10 35 -5 0 -10 25 -10
55 0 30 -4 55 -9 55 -5 0 -11 17 -14 38 -3 20 -12 64 -22 97 -9 33 -19 79 -22
103 -3 23 -9 42 -14 42 -5 0 -9 23 -9 50 0 28 -4 50 -9 50 -5 0 -11 19 -14 43
-3 23 -13 69 -22 102 -10 33 -20 81 -22 108 -3 26 -9 47 -14 47 -5 0 -9 20 -9
45 0 25 -4 45 -9 45 -5 0 -11 17 -14 38 -10 66 -32 160 -39 168 -5 4 -8 25 -8
46 0 21 -4 38 -10 38 -5 0 -10 23 -10 50 0 28 -4 50 -10 50 -5 0 -10 17 -10
38 0 21 -7 47 -15 58 -8 10 -15 36 -15 56 0 20 -4 40 -10 43 -5 3 -10 26 -10
51 0 24 -4 44 -10 44 -5 0 -10 20 -10 45 0 25 -4 45 -10 45 -5 0 -10 15 -10
33 -1 17 -7 50 -15 72 -8 22 -15 52 -15 67 0 15 -4 30 -10 33 -5 3 -10 24 -10
46 0 21 -4 39 -9 39 -5 0 -11 21 -14 48 -7 62 -22 130 -36 165 -6 16 -11 42
-11 58 0 16 -4 29 -10 29 -5 0 -10 23 -10 50 0 28 -4 50 -9 50 -5 0 -11 19
-14 43 -9 68 -22 132 -32 147 -10 17 -24 84 -32 153 -3 26 -9 47 -14 47 -5 0
-9 20 -9 45 0 25 -4 45 -10 45 -5 0 -10 14 -10 30 0 17 -7 47 -15 67 -8 19
-15 50 -15 69 0 18 -4 36 -10 39 -5 3 -10 26 -10 51 0 24 -4 44 -10 44 -5 0
-10 12 -10 28 0 15 -7 45 -15 67 -8 22 -14 55 -15 73 0 17 -4 32 -10 32 -5 0
-10 20 -10 45 0 25 -4 45 -10 45 -5 0 -10 20 -10 45 0 25 -4 45 -9 45 -5 0
-11 21 -14 48 -5 51 -24 126 -38 154 -5 10 -9 34 -9 53 0 19 -4 35 -10 35 -5
0 -10 23 -10 50 0 28 -4 50 -9 50 -5 0 -11 19 -14 43 -3 23 -13 71 -22 107 -9
36 -19 82 -22 103 -3 20 -9 37 -14 37 -5 0 -9 25 -9 55 0 30 -4 55 -9 55 -5 0
-11 17 -14 38 -3 20 -13 64 -22 97 -10 33 -20 81 -22 108 -3 26 -9 47 -14 47
-5 0 -9 20 -9 45 0 25 -4 45 -10 45 -5 0 -10 13 -10 29 0 16 -7 45 -15 64 -8
20 -15 52 -15 72 0 19 -4 35 -10 35 -5 0 -10 20 -10 45 0 25 -4 45 -10 45 -5
0 -10 20 -10 44 0 25 -4 48 -10 51 -5 3 -10 16 -10 28 0 12 -8 43 -17 70 l-17
47 -1088 0 -1087 0 -16 -30z m168 -367 c15 -77 29 -130 37 -145 6 -10 10 -36
10 -58 0 -22 5 -40 10 -40 6 0 10 -20 10 -45 0 -25 5 -45 10 -45 6 0 10 -17
10 -39 0 -21 7 -55 15 -74 8 -20 15 -48 15 -62 0 -14 5 -25 10 -25 6 0 10 -20
10 -45 0 -25 4 -45 9 -45 5 0 11 -21 14 -47 7 -63 22 -131 36 -166 6 -16 11
-42 11 -58 0 -16 5 -29 10 -29 6 0 10 -22 10 -50 0 -27 4 -50 9 -50 5 0 11
-19 14 -42 9 -72 23 -132 35 -155 7 -12 12 -40 12 -62 0 -23 5 -41 10 -41 6 0
10 -20 10 -45 0 -25 5 -45 10 -45 6 0 10 -20 10 -44 0 -24 5 -46 11 -48 15 -5
15 -146 0 -161 -6 -6 -11 -30 -11 -54 0 -24 -4 -43 -10 -43 -5 0 -10 -17 -10
-38 0 -21 -4 -42 -9 -48 -5 -5 -11 -27 -14 -49 -6 -47 -26 -123 -38 -147 -5
-10 -9 -34 -9 -53 0 -19 -4 -35 -10 -35 -5 0 -10 -18 -10 -40 0 -22 -4 -48 -9
-58 -12 -23 -32 -99 -38 -144 -3 -21 -9 -38 -14 -38 -5 0 -9 -20 -9 -45 0 -25
-4 -45 -10 -45 -5 0 -10 -20 -10 -45 0 -25 -4 -45 -9 -45 -5 0 -12 -25 -16
-55 -3 -30 -11 -55 -16 -55 -5 0 -9 -20 -9 -45 0 -25 -4 -45 -10 -45 -5 0 -10
-20 -10 -45 0 -25 -4 -45 -10 -45 -5 0 -10 -20 -10 -45 0 -25 -4 -45 -8 -45
-8 0 -29 -77 -39 -142 -3 -21 -9 -38 -14 -38 -5 0 -9 -22 -9 -50 0 -27 -4 -50
-10 -50 -5 0 -10 -18 -10 -39 0 -22 -4 -42 -9 -45 -5 -4 -12 -29 -16 -56 -4
-27 -11 -52 -16 -56 -5 -3 -9 -23 -9 -45 0 -21 -4 -39 -10 -39 -5 0 -10 -20
-10 -45 0 -25 -4 -45 -10 -45 -5 0 -10 -19 -10 -43 0 -24 -4 -47 -9 -52 -10
-11 -30 -89 -38 -147 -3 -21 -9 -38 -14 -38 -5 0 -9 -20 -9 -45 0 -25 -4 -45
-10 -45 -5 0 -10 -20 -10 -45 0 -25 -4 -45 -9 -45 -5 0 -12 -25 -16 -55 -3
-30 -11 -55 -16 -55 -5 0 -9 -20 -9 -45 0 -25 -4 -45 -10 -45 -5 0 -10 -20
-10 -45 0 -25 -4 -45 -10 -45 -5 0 -10 -13 -10 -29 0 -16 -7 -45 -15 -64 -8
-20 -15 -48 -15 -62 0 -14 -4 -25 -10 -25 -5 0 -10 -20 -10 -45 0 -25 -4 -45
-10 -45 -5 0 -10 -20 -10 -45 0 -25 -4 -45 -10 -45 -5 0 -10 -20 -10 -44 0
-25 -4 -48 -10 -51 -5 -3 -12 -28 -16 -55 -4 -28 -10 -50 -15 -50 -5 0 -9 -20
-9 -45 0 -25 -4 -45 -10 -45 -5 0 -10 -20 -10 -45 0 -25 -4 -45 -10 -45 -5 0
-10 -14 -10 -30 0 -17 -7 -47 -15 -67 -8 -19 -15 -48 -15 -64 0 -16 -4 -29
-10 -29 -5 0 -10 -20 -10 -45 0 -25 -4 -45 -10 -45 -5 0 -10 -20 -10 -45 0
-25 -4 -45 -10 -45 -5 0 -10 -17 -10 -38 0 -21 -5 -43 -10 -48 -6 -6 -13 -34
-17 -62 -3 -29 -10 -52 -14 -52 -5 0 -9 -20 -9 -45 0 -25 -4 -45 -10 -45 -5 0
-10 -17 -10 -38 0 -21 -4 -42 -9 -47 -10 -11 -30 -89 -38 -147 -3 -21 -9 -38
-14 -38 -5 0 -9 -20 -9 -45 0 -25 -4 -45 -10 -45 -5 0 -10 -20 -10 -45 0 -25
-4 -45 -10 -45 -5 0 -10 -11 -10 -24 0 -13 -7 -43 -15 -66 -8 -23 -15 -58 -15
-76 0 -19 -4 -34 -10 -34 -5 0 -10 -20 -10 -45 0 -25 -4 -45 -9 -45 -5 0 -11
-17 -14 -37 -3 -21 -12 -65 -22 -98 -9 -33 -19 -79 -22 -102 -3 -24 -9 -43
-14 -43 -5 0 -9 -20 -9 -45 0 -25 -4 -45 -10 -45 -5 0 -10 -9 -10 -20 0 -20
-7 -20 -395 -20 -257 0 -395 4 -395 10 0 6 5 10 10 10 6 0 10 20 10 45 0 25 5
45 10 45 6 0 10 18 10 40 0 22 4 48 9 58 12 23 32 99 38 145 3 20 9 37 14 37
5 0 9 23 9 50 0 28 4 50 9 50 5 0 11 17 14 38 3 20 13 66 22 102 9 36 19 82
22 103 3 20 9 37 14 37 5 0 9 20 9 45 0 25 5 45 10 45 6 0 10 18 10 39 0 22 4
42 9 45 5 3 12 26 15 51 4 25 11 45 17 45 5 0 9 20 9 45 0 25 5 45 10 45 6 0
10 20 10 45 0 25 5 45 10 45 6 0 10 17 10 38 0 21 5 43 10 48 6 6 13 34 17 62
3 29 10 52 14 52 5 0 9 20 9 45 0 25 5 45 10 45 6 0 10 20 10 45 0 25 5 45 10
45 6 0 10 13 10 29 0 16 7 45 15 64 8 20 15 50 15 67 0 16 5 30 10 30 6 0 10
20 10 45 0 25 5 45 10 45 6 0 10 20 10 45 0 25 5 45 10 45 6 0 10 8 10 18 0
11 10 54 21 98 12 43 24 98 26 122 3 23 9 42 14 42 5 0 9 18 9 40 0 22 4 48 9
58 12 23 32 99 38 145 3 20 9 37 14 37 5 0 9 20 9 45 0 25 5 45 10 45 6 0 10
17 10 38 0 21 3 42 7 46 9 9 33 96 40 149 3 20 9 37 14 37 5 0 9 20 9 45 0 25
4 45 9 45 5 0 11 21 14 48 6 61 27 144 38 157 5 5 9 26 9 47 0 21 5 38 10 38
6 0 10 20 10 45 0 25 5 45 10 45 6 0 10 20 10 45 0 25 4 45 8 45 8 0 28 77 39
153 3 20 9 37 14 37 5 0 9 20 9 45 0 25 5 45 10 45 6 0 10 18 10 39 0 22 4 42
9 45 4 3 11 28 15 55 4 28 11 53 16 56 6 3 10 24 10 46 0 21 5 39 10 39 6 0
10 23 10 50 0 28 4 50 9 50 5 0 11 17 14 38 10 65 31 142 39 142 4 0 8 20 8
45 0 25 5 45 10 45 6 0 10 20 10 45 0 25 4 45 9 45 5 0 11 17 14 38 3 20 13
64 22 97 10 33 19 77 22 98 3 20 9 37 13 37 4 0 10 21 13 48 8 71 41 211 58
244 5 10 9 34 9 53 0 19 5 35 10 35 6 0 10 18 10 40 0 22 4 48 9 58 12 21 52
184 58 235 3 20 9 37 14 37 5 0 9 20 9 45 0 25 5 45 10 45 6 0 10 15 10 34 0
18 7 50 15 69 8 20 15 50 15 67 0 16 5 30 10 30 6 0 10 20 10 45 0 25 5 45 10
45 6 0 10 20 10 45 0 25 4 45 8 45 8 0 29 77 39 143 3 20 9 37 14 37 5 0 9 20
9 45 0 25 5 45 10 45 6 0 10 20 10 45 0 25 5 45 10 45 6 0 10 11 10 24 0 13 7
43 15 66 8 23 15 58 15 76 0 19 5 34 10 34 6 0 10 20 10 45 0 25 4 45 9 45 5
0 11 17 14 38 3 20 12 64 22 97 9 33 19 77 22 98 3 20 9 37 14 37 5 0 9 16 9
35 0 42 15 47 23 8z"/>
<path d="M11748 7604 c-361 -54 -709 -206 -988 -431 -102 -82 -272 -259 -349
-363 -368 -495 -489 -1118 -335 -1725 63 -249 189 -505 353 -720 68 -90 255
-279 346 -350 224 -175 484 -305 751 -375 702 -184 1468 35 1970 563 392 412
601 991 555 1540 -42 503 -238 932 -586 1283 -290 292 -660 488 -1070 565
-146 28 -502 35 -647 13z"/>
</g>
</svg>
